<svg xmlns="http://www.w3.org/2000/svg" width="17.099" height="17.056" viewBox="0 0 17.099 17.056"><path d="M2465.233,2914.416s1.777-1.512,2.976-2.4a10.394,10.394,0,0,1,1.818-1.152,1.993,1.993,0,0,1,.771-.2,1.141,1.141,0,0,1,.761.2s.158.158.355.4.435.576.435.576a.754.754,0,0,1,.038.687.582.582,0,0,1-.184.214.883.883,0,0,1-.319.106,17.468,17.468,0,0,0-2.976,3.149,20.731,20.731,0,0,0-2.144,3.329,4.6,4.6,0,0,0,.739,1.891,11.437,11.437,0,0,0,1.393,2.016,1.054,1.054,0,0,1,.248.456.572.572,0,0,1-.137.387l-1.389,2.01a.39.39,0,0,1-.221.143.455.455,0,0,1-.259-.1l-4.325-3.722s-1.638,1.741-2.909,2.939a24.443,24.443,0,0,1-2.176,1.852s-.747-.716-1.33-1.391a14.518,14.518,0,0,1-1-1.309.224.224,0,0,1-.041-.147.469.469,0,0,1,.081-.176,16.882,16.882,0,0,1,1.837-2.135c1.415-1.475,3.821-3.764,3.821-3.764s.133-.269-.237-1.732c-.138-.545-.507-1.39-.734-2.13-.376-1.221-.616-2.3-.616-2.3s-.235-1.173.214-1.694,1.675-.156,1.675-.156a3.77,3.77,0,0,1,1.958,1.461C2464.307,2912.978,2465.233,2914.416,2465.233,2914.416Z" transform="translate(-2455.352 -2910.145)" fill="#e00"/></svg>