<svg xmlns="http://www.w3.org/2000/svg" width="21.628" height="27.05" viewBox="0 0 21.628 27.05"><g transform="translate(-6.761 -3.93)"><path d="M17.863,31.919c2.1,0,3.252-1.487,3.252-3.583H14.6C14.6,30.432,15.753,31.919,17.863,31.919Z" transform="translate(-0.302 -0.938)" fill="#00ae6b"/><path d="M28.115,23.963c-1.041-1.372-3.09-2.177-3.09-8.323,0-6.308-2.785-8.843-5.382-9.452-.243-.061-.419-.142-.419-.4v-.2a1.65,1.65,0,1,0-3.3,0v.2c0,.25-.176.338-.419.4-2.6.615-5.382,3.144-5.382,9.452,0,6.146-2.049,6.943-3.09,8.323a1.342,1.342,0,0,0,1.075,2.15H27.047A1.342,1.342,0,0,0,28.115,23.963Z" transform="translate(0 0)" fill="#00ae6b"/></g></svg>