<svg xmlns="http://www.w3.org/2000/svg" width="12.618" height="15.437" viewBox="0 0 12.618 15.437"><path d="M1229.107,3667.976s-.07-.211.042-.265.268.059.268.059a5.739,5.739,0,0,1,1.521,1.524,19.5,19.5,0,0,1,1.5,2.733,42.58,42.58,0,0,1,2.348-4.257c1.742-2.877,4.618-7.25,4.618-7.25a1.268,1.268,0,0,1,1.731-.457c1.093.605.28,1.716.28,1.716s-3.036,4.178-5.056,7.41a59.141,59.141,0,0,0-3.1,5.521,1.039,1.039,0,0,1-.915.6.924.924,0,0,1-.813-.732,20.748,20.748,0,0,0-.842-2.857C1230.084,3670.073,1229.107,3667.976,1229.107,3667.976Z" transform="translate(-1229.085 -3659.876)" fill="#00ae6b"/></svg>