<svg xmlns="http://www.w3.org/2000/svg" width="30" height="30" viewBox="0 0 30 30"><g transform="translate(-185 -135)"><path d="M15,0A15,15,0,0,1,30,15a15.608,15.608,0,0,1-.518,3.922A15,15,0,1,1,15,0Z" transform="translate(185 135)" fill="#0bbb77"/><path d="M19.148,16.75a2.844,2.844,0,0,0-1.914.752l-6.963-4.053a2.7,2.7,0,0,0,0-1.367l6.885-4.014a2.923,2.923,0,1,0-.937-2.139,3.2,3.2,0,0,0,.088.684L9.422,10.627a2.93,2.93,0,1,0,0,4.277l6.953,4.062a2.755,2.755,0,0,0-.078.635,2.851,2.851,0,1,0,2.851-2.851Z" transform="translate(185.211 137.274)" fill="#fff"/></g></svg>