<svg xmlns="http://www.w3.org/2000/svg" width="30" height="30" viewBox="0 0 30 30"><g transform="translate(-73 -135)"><circle cx="15" cy="15" r="15" transform="translate(73 135)" fill="#f90"/><path d="M6.813,0c1.873,0,3.406,1.908,3.406,4.258S8.686,8.516,6.813,8.516,3.406,6.608,3.406,4.258,4.939,0,6.813,0Zm3.56,8.516a3.41,3.41,0,0,1,3.253,3.406v1.7H0v-1.7A3.4,3.4,0,0,1,3.253,8.516a4.783,4.783,0,0,0,3.56,1.7A4.783,4.783,0,0,0,10.372,8.516Z" transform="translate(81.187 142.187)" fill="#fff"/></g></svg>